<svg xmlns="http://www.w3.org/2000/svg" xmlns:xlink="http://www.w3.org/1999/xlink" width="60" zoomAndPan="magnify" viewBox="0 0 150 149.999998" height="60" preserveAspectRatio="xMidYMid meet" version="1.0"><defs><clipPath id="c4c5b645af"><path d="M 0.632812 2.117188 L 149.132812 2.117188 L 149.132812 147.617188 L 0.632812 147.617188 Z M 0.632812 2.117188 " clip-rule="nonzero"/></clipPath></defs><g clip-path="url(#c4c5b645af)"><path fill="#040606" d="M 136.847656 72.066406 C 131.132812 68.539062 125.324219 66.867188 119.511719 67.101562 C 115.097656 67.277344 110.789062 68.535156 106.671875 70.839844 C 106.640625 70.523438 106.605469 70.207031 106.566406 69.890625 C 108.503906 68.632812 113.46875 65.648438 119.765625 63.589844 C 130.214844 60.175781 139.332031 60.746094 146.878906 65.28125 C 145.992188 67.125 143.09375 71.914062 136.847656 72.066406 Z M 130.601562 80.4375 C 125.027344 82.144531 116.324219 83.433594 106.109375 80.136719 C 106.21875 79.625 106.3125 79.105469 106.398438 78.585938 C 107.386719 78.761719 108.375 78.894531 109.371094 79.003906 C 110.863281 79.15625 112.359375 79.253906 113.855469 79.238281 C 115.351562 79.214844 116.847656 79.121094 118.316406 78.859375 C 119.785156 78.585938 121.226562 78.171875 122.5625 77.53125 C 121.171875 78.050781 119.722656 78.328125 118.265625 78.464844 C 116.804688 78.589844 115.339844 78.546875 113.882812 78.441406 C 112.425781 78.324219 110.980469 78.097656 109.550781 77.820312 C 108.5625 77.625 107.566406 77.394531 106.601562 77.132812 C 106.636719 76.796875 106.667969 76.464844 106.695312 76.128906 C 109.214844 75.546875 111.746094 74.980469 114.277344 74.453125 C 115.726562 74.148438 117.175781 73.855469 118.632812 73.589844 C 119.359375 73.457031 120.089844 73.332031 120.820312 73.222656 C 121.1875 73.175781 121.550781 73.109375 121.917969 73.082031 L 122.472656 73.027344 L 123.027344 73.03125 L 122.46875 72.980469 L 121.914062 72.980469 C 121.542969 72.976562 121.171875 73.011719 120.800781 73.023438 C 120.058594 73.070312 119.320312 73.125 118.578125 73.195312 C 117.097656 73.332031 115.625 73.492188 114.152344 73.667969 C 111.691406 73.953125 109.238281 74.277344 106.785156 74.613281 C 106.800781 74.070312 106.800781 73.527344 106.792969 72.980469 C 114.378906 68.425781 125.941406 65.695312 139.660156 76.351562 C 138.132812 77.320312 134.964844 79.105469 130.601562 80.4375 Z M 142.699219 93.457031 C 137.257812 93.914062 118.957031 94.597656 104.691406 84.957031 C 104.78125 84.71875 104.867188 84.484375 104.953125 84.242188 C 106.75 84.8125 108.546875 85.339844 110.363281 85.835938 C 112.535156 86.429688 114.726562 86.96875 116.929688 87.433594 C 119.136719 87.890625 121.363281 88.28125 123.609375 88.492188 C 124.730469 88.597656 125.859375 88.652344 126.988281 88.617188 C 128.109375 88.570312 129.25 88.445312 130.300781 88.039062 C 129.230469 88.382812 128.097656 88.4375 126.988281 88.417969 C 125.871094 88.386719 124.761719 88.269531 123.65625 88.097656 C 121.449219 87.753906 119.273438 87.242188 117.117188 86.660156 C 114.960938 86.070312 112.828125 85.40625 110.710938 84.691406 C 108.9375 84.09375 107.167969 83.460938 105.429688 82.792969 C 105.507812 82.527344 105.585938 82.261719 105.65625 81.996094 C 110.4375 83.523438 114.902344 84.09375 118.898438 84.09375 C 123.464844 84.09375 127.421875 83.351562 130.539062 82.453125 C 131.96875 83.265625 137.816406 86.847656 142.699219 93.457031 Z M 137.460938 108.296875 C 134.242188 108.171875 124.160156 107.300781 116.023438 101.542969 C 110.929688 97.3125 105.355469 94.828125 99.414062 94.136719 C 99.894531 93.542969 100.359375 92.9375 100.796875 92.3125 C 101.144531 91.808594 101.476562 91.296875 101.796875 90.777344 C 103.539062 91.933594 105.296875 92.964844 107.105469 93.945312 C 108.96875 94.945312 110.871094 95.867188 112.808594 96.707031 C 114.742188 97.554688 116.730469 98.265625 118.742188 98.894531 C 120.753906 99.519531 122.816406 99.96875 124.882812 100.304688 C 122.835938 99.839844 120.824219 99.265625 118.871094 98.519531 C 116.917969 97.765625 115 96.945312 113.148438 95.984375 C 111.289062 95.035156 109.472656 94.011719 107.707031 92.910156 C 105.953125 91.816406 104.21875 90.644531 102.605469 89.40625 C 103.0625 88.589844 103.492188 87.757812 103.878906 86.902344 C 103.898438 86.855469 103.921875 86.804688 103.945312 86.753906 C 112.523438 92.449219 122.265625 94.613281 130.0625 95.324219 C 131.289062 96.460938 136.574219 101.710938 137.460938 108.296875 Z M 113.859375 118.175781 C 112.847656 114.292969 111.003906 110.761719 108.332031 107.613281 C 104.371094 102.945312 99.347656 100.035156 95.460938 98.320312 C 95.789062 98.027344 96.109375 97.722656 96.425781 97.417969 C 98.082031 97.882812 99.757812 98.476562 101.371094 99.144531 C 103.09375 99.859375 104.777344 100.675781 106.375 101.636719 C 107.179688 102.109375 107.953125 102.632812 108.703125 103.1875 C 109.453125 103.742188 110.164062 104.351562 110.824219 105.011719 C 112.15625 106.3125 113.261719 107.878906 113.902344 109.664062 C 113.390625 107.839844 112.382812 106.164062 111.113281 104.738281 C 110.488281 104.015625 109.804688 103.34375 109.078125 102.722656 C 108.351562 102.101562 107.597656 101.507812 106.8125 100.964844 C 105.242188 99.871094 103.578125 98.914062 101.867188 98.058594 C 100.484375 97.371094 99.085938 96.746094 97.632812 96.191406 C 97.722656 96.097656 97.8125 96.007812 97.902344 95.910156 C 104.261719 96.351562 110.214844 98.964844 115.601562 103.691406 C 123.164062 110.328125 127.511719 119.34375 128.90625 122.570312 C 121.207031 122.78125 115.179688 119.0625 113.859375 118.175781 Z M 112.660156 129.351562 C 111.074219 129.214844 107.375 128.632812 103.242188 126.15625 C 96.214844 121.9375 91 114.074219 88.121094 103.375 C 88.207031 103.328125 88.296875 103.285156 88.386719 103.238281 C 89.128906 104.542969 89.882812 105.839844 90.65625 107.125 C 91.648438 108.773438 92.660156 110.40625 93.714844 112.015625 C 94.765625 113.621094 95.851562 115.210938 97.011719 116.746094 C 97.597656 117.507812 98.199219 118.261719 98.84375 118.976562 C 99.488281 119.683594 100.167969 120.382812 100.980469 120.898438 C 100.207031 120.328125 99.585938 119.59375 98.992188 118.847656 C 98.40625 118.097656 97.863281 117.3125 97.339844 116.515625 C 96.292969 114.917969 95.328125 113.269531 94.394531 111.601562 C 93.464844 109.933594 92.570312 108.246094 91.699219 106.546875 C 91.019531 105.210938 90.355469 103.867188 89.710938 102.519531 C 90.292969 102.1875 90.863281 101.835938 91.421875 101.46875 C 92.976562 102.453125 94.511719 103.53125 95.988281 104.65625 C 97.71875 105.976562 99.375 107.382812 100.933594 108.898438 C 101.707031 109.660156 102.457031 110.445312 103.167969 111.269531 C 103.871094 112.09375 104.535156 112.957031 105.140625 113.859375 C 105.746094 114.761719 106.269531 115.71875 106.695312 116.71875 C 107.117188 117.722656 107.425781 118.777344 107.546875 119.867188 C 107.429688 117.667969 106.578125 115.554688 105.480469 113.648438 C 104.921875 112.695312 104.296875 111.777344 103.632812 110.894531 C 102.960938 110.015625 102.25 109.167969 101.507812 108.34375 C 100.015625 106.710938 98.417969 105.175781 96.742188 103.730469 C 95.449219 102.617188 94.128906 101.550781 92.746094 100.53125 C 93.113281 100.261719 93.472656 99.984375 93.832031 99.699219 C 101.914062 103.046875 114.671875 111.257812 112.660156 129.351562 Z M 97.90625 142.3125 C 94.945312 139.578125 81.53125 126.089844 80.988281 105.878906 C 81.824219 105.707031 82.65625 105.492188 83.472656 105.242188 C 83.839844 107.160156 84.246094 109.054688 84.691406 110.949219 C 85.238281 113.257812 85.839844 115.554688 86.523438 117.828125 C 87.214844 120.097656 87.984375 122.351562 88.9375 124.527344 C 89.421875 125.613281 89.949219 126.679688 90.578125 127.6875 C 91.207031 128.6875 91.9375 129.664062 92.910156 130.347656 C 91.980469 129.609375 91.316406 128.609375 90.75 127.589844 C 90.183594 126.558594 89.722656 125.472656 89.304688 124.375 C 88.484375 122.171875 87.847656 119.90625 87.292969 117.617188 C 86.742188 115.332031 86.273438 113.023438 85.863281 110.707031 C 85.511719 108.730469 85.203125 106.734375 84.941406 104.75 C 85.417969 104.574219 85.890625 104.386719 86.359375 104.1875 C 89.800781 116.714844 95.757812 123.332031 100.730469 126.800781 C 101.0625 128.796875 102.378906 138.34375 97.90625 142.3125 Z M 85.164062 145.371094 C 83.964844 144.464844 81.367188 142.1875 79.902344 138.585938 C 81.464844 135.675781 82.289062 132.695312 82.585938 129.753906 C 82.703125 130.296875 82.820312 130.839844 82.933594 131.382812 C 83.09375 132.105469 83.226562 132.832031 83.371094 133.558594 C 83.523438 134.28125 83.648438 135.011719 83.773438 135.738281 L 83.960938 136.832031 L 84.113281 137.929688 C 84.234375 138.664062 84.265625 139.402344 84.328125 140.140625 C 84.300781 139.402344 84.300781 138.65625 84.214844 137.921875 L 84.109375 136.8125 L 83.972656 135.710938 C 83.878906 134.976562 83.785156 134.238281 83.667969 133.507812 C 83.554688 132.777344 83.453125 132.039062 83.324219 131.3125 C 83.132812 130.113281 82.925781 128.917969 82.710938 127.722656 C 82.753906 125.851562 82.601562 124.011719 82.304688 122.226562 C 84.039062 126.863281 86.222656 130.753906 88.214844 133.742188 C 88.222656 133.753906 88.230469 133.761719 88.234375 133.773438 C 88.242188 135.164062 88.113281 141.730469 85.164062 145.371094 Z M 74.488281 142.800781 C 72.71875 140.269531 67.90625 132.941406 67.296875 127.207031 C 71.988281 120.558594 72.628906 114.875 71.871094 110.59375 C 72.050781 111.261719 72.222656 111.933594 72.390625 112.605469 C 72.992188 115 73.546875 117.410156 74.027344 119.835938 C 74.503906 122.257812 74.910156 124.699219 75.152344 127.15625 C 75.265625 128.386719 75.339844 129.621094 75.316406 130.855469 C 75.28125 132.082031 75.171875 133.332031 74.707031 134.488281 C 75.234375 133.359375 75.414062 132.097656 75.515625 130.863281 C 75.605469 129.621094 75.597656 128.375 75.550781 127.128906 C 75.441406 124.640625 75.160156 122.164062 74.8125 119.703125 C 74.460938 117.238281 74.035156 114.789062 73.558594 112.34375 C 73.171875 110.363281 72.753906 108.394531 72.300781 106.421875 C 72.816406 106.460938 73.332031 106.488281 73.847656 106.503906 C 77.78125 112.527344 86.917969 129.609375 74.488281 142.800781 Z M 59.851562 132.769531 C 59.042969 130.910156 57.550781 126.996094 57.046875 122.496094 C 56.167969 114.703125 58.503906 108.707031 63.988281 104.660156 C 64.164062 104.722656 64.339844 104.78125 64.515625 104.84375 C 64.128906 105.953125 63.789062 107.066406 63.472656 108.195312 C 63.042969 109.765625 62.660156 111.34375 62.378906 112.945312 C 62.105469 114.546875 61.890625 116.160156 61.828125 117.777344 C 61.777344 119.398438 61.847656 121.027344 62.152344 122.609375 C 61.980469 121.003906 62.042969 119.398438 62.222656 117.8125 C 62.417969 116.222656 62.757812 114.660156 63.15625 113.117188 C 63.5625 111.574219 64.0625 110.058594 64.609375 108.5625 C 65.019531 107.460938 65.460938 106.359375 65.933594 105.289062 C 66.589844 105.476562 67.25 105.648438 67.914062 105.789062 C 67.996094 105.804688 68.074219 105.820312 68.152344 105.835938 C 71.09375 110.925781 73.011719 120.378906 59.851562 132.769531 Z M 51.234375 141.648438 C 49.488281 138.859375 45.609375 131.445312 47.558594 123.292969 C 52.714844 118.578125 55.667969 113.378906 57.351562 109.082031 C 57.324219 109.160156 57.296875 109.234375 57.265625 109.316406 C 57.183594 109.550781 57.101562 109.789062 57.019531 110.023438 C 56.304688 111.472656 55.777344 113.03125 55.433594 114.6875 C 55.199219 115.402344 54.972656 116.113281 54.746094 116.832031 C 53.957031 119.351562 53.203125 121.882812 52.5625 124.449219 C 51.917969 127.007812 51.339844 129.589844 51.007812 132.207031 C 51.472656 129.613281 52.179688 127.070312 52.945312 124.554688 C 53.5625 122.523438 54.257812 120.515625 54.976562 118.519531 C 54.929688 119.882812 54.984375 121.300781 55.152344 122.765625 C 55.503906 125.84375 56.273438 128.625 57.003906 130.734375 C 56.445312 131.921875 53.839844 137.386719 51.234375 141.648438 Z M 34.875 117.992188 C 36.324219 114.691406 38.179688 111.824219 40.4375 109.398438 C 40.9375 108.984375 41.433594 108.554688 41.925781 108.109375 C 42.582031 107.519531 43.207031 106.921875 43.804688 106.332031 C 47.070312 103.816406 50.949219 101.988281 55.421875 100.867188 C 54.265625 101.835938 53.117188 102.808594 51.976562 103.796875 C 50.230469 105.3125 48.511719 106.863281 46.820312 108.445312 C 45.128906 110.023438 43.488281 111.660156 41.90625 113.347656 C 41.515625 113.777344 41.121094 114.199219 40.738281 114.632812 L 39.617188 115.957031 C 39.257812 116.414062 38.917969 116.882812 38.570312 117.339844 C 38.234375 117.8125 37.941406 118.3125 37.628906 118.796875 C 37.972656 118.332031 38.289062 117.851562 38.648438 117.402344 C 39.023438 116.964844 39.386719 116.515625 39.769531 116.089844 L 40.957031 114.835938 C 41.363281 114.425781 41.777344 114.03125 42.1875 113.625 C 43.855469 112.039062 45.578125 110.511719 47.351562 109.042969 C 49.117188 107.566406 50.914062 106.128906 52.734375 104.71875 C 54.234375 103.5625 55.75 102.417969 57.277344 101.300781 C 57.34375 101.347656 57.414062 101.390625 57.480469 101.4375 C 56.675781 106.699219 52.539062 122.777344 31.84375 130.464844 C 31.996094 128.15625 32.585938 123.214844 34.875 117.992188 Z M 12.992188 116.304688 C 13.460938 114.539062 14.648438 110.753906 16.800781 108.054688 C 15.828125 110.8125 15.441406 112.734375 15.410156 112.886719 C 15.347656 113.203125 15.449219 113.527344 15.675781 113.753906 C 15.859375 113.929688 16.097656 114.027344 16.347656 114.027344 C 16.414062 114.027344 16.480469 114.023438 16.550781 114.007812 C 26.328125 111.898438 34.371094 108.140625 40.460938 102.84375 C 44.566406 99.273438 47.066406 95.621094 48.558594 92.75 C 48.894531 93.246094 49.238281 93.738281 49.625 94.199219 C 49.871094 94.503906 50.109375 94.816406 50.359375 95.121094 C 49.183594 97 46.421875 101.074219 42.265625 105.160156 C 41.222656 105.996094 40.269531 106.871094 39.398438 107.773438 C 31.175781 114.714844 22.300781 117.585938 12.992188 116.304688 Z M 3.371094 94.804688 C 4.292969 93.316406 5.3125 91.769531 5.835938 91.125 C 9.546875 92.523438 13.484375 93.230469 17.582031 93.230469 C 20.65625 93.230469 23.824219 92.832031 27.046875 92.039062 C 25.15625 93.6875 23.421875 95.660156 21.851562 97.953125 C 21.828125 97.957031 21.804688 97.960938 21.78125 97.964844 C 21.664062 98.003906 10.277344 101.347656 3.371094 94.804688 Z M 18.238281 76.511719 C 21.136719 77.183594 23.746094 77.65625 26.09375 77.972656 C 24.066406 78.433594 22.058594 78.976562 20.089844 79.644531 C 17.527344 80.53125 14.996094 81.605469 12.765625 83.152344 C 15.070312 81.71875 17.628906 80.78125 20.210938 80.027344 C 22.800781 79.285156 25.453125 78.757812 28.113281 78.347656 C 28.308594 78.316406 28.507812 78.292969 28.703125 78.265625 C 30.277344 78.40625 31.714844 78.472656 33.03125 78.472656 C 36.925781 78.472656 39.730469 77.910156 41.742188 77.175781 C 42.148438 77.164062 42.550781 77.152344 42.957031 77.144531 C 43.027344 78.027344 43.128906 78.90625 43.269531 79.785156 C 42.582031 80.207031 41.855469 80.617188 41.136719 81.003906 C 40.230469 81.484375 39.304688 81.9375 38.371094 82.363281 C 36.496094 83.222656 34.566406 83.964844 32.597656 84.589844 C 32.105469 84.75 31.613281 84.910156 31.113281 85.039062 L 29.617188 85.453125 C 28.609375 85.675781 27.605469 85.945312 26.582031 86.105469 C 24.546875 86.515625 22.472656 86.699219 20.394531 86.832031 C 22.472656 86.832031 24.570312 86.78125 26.640625 86.5 C 27.683594 86.402344 28.710938 86.199219 29.746094 86.035156 L 31.285156 85.714844 C 31.800781 85.613281 32.308594 85.488281 32.816406 85.355469 C 34.855469 84.851562 36.863281 84.21875 38.828125 83.46875 C 40.449219 82.847656 42.027344 82.171875 43.589844 81.363281 C 43.652344 81.636719 43.714844 81.90625 43.78125 82.175781 C 42.082031 83.398438 37.300781 86.605469 30.929688 88.875 C 20.589844 92.554688 11.128906 92.140625 2.800781 87.652344 C 3.535156 86.015625 6.570312 81.320312 18.238281 76.511719 Z M 18.132812 64.898438 C 27.410156 61.589844 35.789062 63.539062 43.042969 70.679688 L 42.648438 70.617188 L 41.210938 70.347656 L 38.316406 69.78125 C 36.378906 69.40625 34.433594 69.058594 32.480469 68.769531 C 30.527344 68.484375 28.5625 68.242188 26.59375 68.109375 C 24.625 67.976562 22.648438 67.925781 20.683594 68.035156 C 22.652344 68.058594 24.609375 68.242188 26.554688 68.503906 C 28.496094 68.769531 30.421875 69.140625 32.335938 69.554688 C 34.25 69.972656 36.152344 70.445312 38.050781 70.945312 L 40.902344 71.703125 L 42.339844 72.078125 L 42.933594 72.214844 C 42.882812 72.996094 42.855469 73.777344 42.855469 74.5625 C 42.042969 75.03125 40.859375 75.542969 39.191406 75.925781 C 37.46875 76.09375 35.75 76.292969 34.035156 76.535156 C 28.371094 76.691406 19.8125 75.5625 7.042969 71.339844 C 8.957031 69.746094 13.003906 66.722656 18.132812 64.898438 Z M 15.746094 63.5625 C 15.65625 63.53125 7.171875 60.304688 4.453125 54.785156 C 6.777344 53.71875 13.789062 50.902344 20.03125 52.351562 C 21.46875 54.804688 23.082031 56.773438 24.800781 58.347656 C 24.179688 58.203125 23.558594 58.070312 22.933594 57.953125 C 21.628906 57.714844 20.3125 57.535156 18.992188 57.464844 C 17.671875 57.398438 16.332031 57.449219 15.042969 57.734375 C 16.347656 57.515625 17.671875 57.53125 18.976562 57.664062 C 20.28125 57.796875 21.574219 58.042969 22.851562 58.34375 C 23.808594 58.574219 24.757812 58.835938 25.699219 59.125 C 26.941406 60.148438 28.226562 60.976562 29.53125 61.644531 C 25.003906 61.066406 20.820312 61.902344 17.429688 63.117188 C 16.929688 63.296875 16.441406 63.484375 15.964844 63.683594 C 15.898438 63.636719 15.828125 63.59375 15.746094 63.5625 Z M 10.761719 42.410156 C 12.449219 41.367188 18.3125 38.277344 25.4375 40.410156 C 25.707031 40.8125 25.988281 41.21875 26.28125 41.625 C 21.039062 43.003906 18.015625 46.335938 17.859375 46.511719 C 17.621094 46.78125 17.550781 47.160156 17.683594 47.496094 C 18.0625 48.453125 18.460938 49.347656 18.878906 50.203125 C 18.609375 50.167969 18.339844 50.136719 18.070312 50.109375 C 16.046875 48.683594 11.539062 45.046875 10.761719 42.410156 Z M 36.617188 29.101562 C 36.785156 30.851562 37.074219 32.59375 37.492188 34.3125 C 37.992188 36.355469 38.683594 38.371094 39.613281 40.285156 C 39.792969 40.652344 39.984375 41.015625 40.179688 41.375 C 38.234375 39.742188 36.300781 38.089844 34.425781 36.378906 C 33.449219 35.484375 32.488281 34.578125 31.5625 33.632812 C 30.648438 32.683594 29.734375 31.714844 29.011719 30.601562 C 29.679688 31.75 30.546875 32.769531 31.417969 33.765625 C 32.296875 34.761719 33.21875 35.722656 34.148438 36.664062 C 36.019531 38.550781 37.949219 40.375 39.894531 42.179688 C 40.5 42.738281 41.109375 43.292969 41.71875 43.847656 C 41.835938 44.007812 41.949219 44.171875 42.070312 44.332031 C 38.3125 42.136719 34.570312 41.03125 30.871094 41.03125 C 30.847656 41.03125 30.820312 41.03125 30.792969 41.03125 C 29.941406 41.035156 29.128906 41.101562 28.351562 41.210938 C 22.40625 33.300781 21.5 26.386719 21.371094 24.09375 C 29.128906 23.40625 35.125 27.871094 36.617188 29.101562 Z M 38.421875 21.933594 C 38.5625 18.242188 39.035156 14.554688 39.730469 10.902344 C 39.847656 10.933594 39.96875 10.964844 40.085938 11.003906 C 40.511719 11.140625 40.941406 11.289062 41.359375 11.464844 C 42.199219 11.808594 43.023438 12.214844 43.816406 12.671875 C 45.402344 13.59375 46.878906 14.714844 48.226562 15.976562 C 50.925781 18.503906 53.066406 21.609375 54.761719 24.933594 C 56.429688 28.28125 57.660156 31.851562 58.554688 35.511719 C 59.359375 38.847656 59.890625 42.253906 60.226562 45.683594 C 59.605469 45.996094 58.996094 46.324219 58.394531 46.675781 C 57.964844 45.03125 57.515625 43.398438 57.039062 41.769531 C 56.429688 39.683594 55.777344 37.609375 55.070312 35.550781 C 54.363281 33.496094 53.601562 31.457031 52.722656 29.464844 C 52.277344 28.472656 51.804688 27.492188 51.261719 26.546875 C 50.71875 25.609375 50.117188 24.683594 49.320312 23.945312 C 50.070312 24.730469 50.605469 25.679688 51.085938 26.640625 C 51.5625 27.609375 51.972656 28.609375 52.355469 29.617188 C 53.105469 31.640625 53.734375 33.707031 54.3125 35.789062 C 54.886719 37.867188 55.402344 39.964844 55.882812 42.070312 C 56.296875 43.878906 56.679688 45.703125 57.03125 47.523438 C 56.566406 47.828125 56.105469 48.144531 55.652344 48.476562 C 54.519531 47.214844 53.414062 45.894531 52.355469 44.558594 C 51.03125 42.878906 49.769531 41.148438 48.578125 39.375 C 47.378906 37.601562 46.289062 35.757812 45.265625 33.871094 C 44.253906 31.980469 43.382812 30.015625 42.625 28 C 43.257812 30.058594 44.007812 32.085938 44.90625 34.046875 C 45.816406 36.003906 46.804688 37.933594 47.902344 39.796875 C 48.996094 41.660156 50.160156 43.488281 51.394531 45.269531 C 52.375 46.675781 53.382812 48.046875 54.453125 49.398438 C 54.132812 49.660156 53.808594 49.925781 53.496094 50.199219 C 52.875 49.957031 52.25 49.734375 51.644531 49.449219 C 50.753906 49.046875 49.898438 48.578125 49.074219 48.058594 C 47.425781 47.019531 45.945312 45.730469 44.65625 44.273438 C 42.085938 41.335938 40.394531 37.675781 39.457031 33.832031 C 38.984375 31.90625 38.667969 29.933594 38.523438 27.941406 C 38.503906 27.691406 38.476562 27.441406 38.460938 27.191406 L 38.429688 26.441406 C 38.414062 25.945312 38.378906 25.445312 38.375 24.941406 C 38.382812 23.941406 38.359375 22.9375 38.421875 21.933594 Z M 60.425781 4.507812 C 62.28125 5.953125 67.425781 10.820312 68.957031 21.171875 C 68.109375 25.0625 67.867188 28.582031 67.902344 31.480469 C 67.964844 36.707031 68.890625 40.6875 69.472656 42.6875 C 69.300781 42.71875 69.128906 42.746094 68.957031 42.777344 C 68.113281 42.929688 67.277344 43.117188 66.449219 43.339844 L 66.449219 43.335938 C 66.40625 42.820312 66.375 42.300781 66.320312 41.789062 L 66.136719 40.261719 L 65.917969 38.746094 C 65.601562 36.730469 65.234375 34.730469 64.835938 32.738281 C 64.03125 28.757812 63.132812 24.804688 62.152344 20.867188 C 62.871094 24.855469 63.511719 28.859375 64.050781 32.867188 C 64.316406 34.875 64.550781 36.882812 64.730469 38.886719 L 64.851562 40.390625 L 64.929688 41.890625 C 64.953125 42.390625 64.945312 42.882812 64.957031 43.378906 C 64.957031 43.511719 64.949219 43.644531 64.945312 43.777344 C 63.96875 44.085938 63.007812 44.4375 62.0625 44.839844 C 61.714844 41.554688 61.1875 38.285156 60.414062 35.058594 C 59.855469 32.785156 59.167969 30.53125 58.332031 28.332031 C 57.878906 25.269531 56.023438 10.730469 60.425781 4.507812 Z M 77.820312 5.503906 C 79.484375 6.976562 83.574219 11.304688 85.738281 19.796875 C 79.648438 27.09375 76.945312 34.839844 77.855469 42.390625 C 77.492188 42.359375 77.128906 42.328125 76.765625 42.304688 L 76.664062 41.777344 L 76.511719 40.976562 L 76.4375 40.574219 L 76.378906 40.171875 C 76.242188 39.09375 76.050781 38.015625 75.976562 36.929688 L 75.828125 35.300781 L 75.753906 33.664062 L 75.71875 32.847656 L 75.71875 32.027344 C 75.722656 31.480469 75.707031 30.933594 75.726562 30.386719 C 75.78125 28.199219 75.984375 26.015625 76.320312 23.847656 C 76.671875 21.683594 77.136719 19.523438 77.886719 17.453125 C 77.015625 19.476562 76.414062 21.617188 75.929688 23.773438 C 75.457031 25.933594 75.121094 28.132812 74.933594 30.34375 C 74.878906 30.894531 74.859375 31.453125 74.824219 32.003906 L 74.773438 32.835938 L 74.757812 33.671875 L 74.734375 35.339844 L 74.78125 37.007812 C 74.792969 38.125 74.917969 39.230469 74.996094 40.34375 L 75.027344 40.761719 L 75.082031 41.175781 L 75.1875 42.007812 L 75.21875 42.25 C 73.941406 42.234375 72.664062 42.292969 71.394531 42.425781 C 70.863281 40.652344 69.867188 36.644531 69.8125 31.375 C 69.746094 24.960938 71.101562 15.339844 77.820312 5.503906 Z M 99.214844 10.394531 C 100.507812 15.519531 99.90625 18.761719 99.675781 19.671875 C 89.121094 27.171875 85.945312 37.855469 84.992188 43.898438 C 84.117188 43.609375 83.230469 43.355469 82.335938 43.140625 C 82.824219 41.542969 83.359375 39.945312 83.925781 38.371094 C 84.652344 36.359375 85.429688 34.359375 86.300781 32.40625 C 87.175781 30.453125 88.09375 28.511719 89.179688 26.667969 C 90.261719 24.820312 91.449219 23.023438 92.910156 21.433594 C 91.355469 22.929688 90.046875 24.664062 88.839844 26.457031 C 87.632812 28.25 86.585938 30.144531 85.582031 32.0625 C 84.582031 33.980469 83.675781 35.945312 82.816406 37.929688 C 82.121094 39.546875 81.464844 41.164062 80.847656 42.820312 C 80.507812 42.753906 80.160156 42.691406 79.816406 42.636719 C 78.6875 34.816406 81.660156 26.988281 88.660156 19.359375 C 92.789062 14.855469 97.230469 11.703125 99.214844 10.394531 Z M 108.414062 28.894531 C 106.75 35.609375 103.5 40.847656 98.714844 44.550781 C 98.664062 44.585938 98.617188 44.621094 98.570312 44.664062 C 96.917969 45.925781 95.085938 47.003906 93.074219 47.898438 C 93.046875 47.878906 93.015625 47.859375 92.988281 47.839844 C 92.890625 47.769531 92.785156 47.703125 92.6875 47.636719 L 93.511719 46.59375 C 94.074219 45.8125 94.628906 45.03125 95.128906 44.222656 C 96.152344 42.617188 97.085938 40.96875 97.960938 39.296875 C 98.84375 37.628906 99.679688 35.9375 100.472656 34.230469 C 101.265625 32.523438 102.035156 30.804688 102.753906 29.066406 C 101.914062 30.75 101.027344 32.40625 100.117188 34.050781 C 99.207031 35.691406 98.257812 37.3125 97.269531 38.902344 C 96.285156 40.496094 95.25 42.054688 94.144531 43.546875 C 93.285156 44.695312 92.390625 45.832031 91.402344 46.828125 C 90.679688 46.394531 89.9375 45.988281 89.183594 45.617188 C 89.429688 44.234375 89.878906 42.859375 90.457031 41.535156 C 90.820312 40.6875 91.242188 39.859375 91.691406 39.046875 C 92.140625 38.234375 92.632812 37.4375 93.148438 36.65625 C 94.179688 35.09375 95.320312 33.597656 96.523438 32.152344 C 97.734375 30.710938 99.007812 29.3125 100.367188 28 C 98.917969 29.214844 97.546875 30.523438 96.226562 31.886719 C 94.917969 33.253906 93.65625 34.679688 92.5 36.195312 C 91.917969 36.953125 91.363281 37.726562 90.839844 38.53125 C 90.316406 39.335938 89.820312 40.160156 89.378906 41.019531 C 88.726562 42.265625 88.175781 43.582031 87.796875 44.96875 C 87.476562 44.832031 87.152344 44.691406 86.828125 44.5625 C 87.851562 37.558594 92.09375 23.234375 109.488281 16.648438 C 109.628906 18.796875 109.726562 23.578125 108.414062 28.894531 Z M 119.554688 18.464844 C 120.339844 20.914062 119.566406 23.457031 119.167969 24.503906 C 116.269531 26.269531 112.949219 28.566406 109.691406 31.421875 C 109.898438 30.746094 110.09375 30.058594 110.269531 29.355469 C 110.84375 27.019531 111.164062 24.800781 111.332031 22.835938 C 114.953125 19.464844 118.230469 18.65625 119.554688 18.464844 Z M 116.601562 43.367188 C 111.53125 45.355469 105.855469 48.785156 100.164062 54.589844 C 99.855469 54.191406 99.535156 53.800781 99.207031 53.421875 C 101.65625 50.285156 104.132812 47.164062 106.65625 44.085938 C 108.058594 42.375 109.472656 40.679688 110.921875 39.007812 C 111.648438 38.175781 112.382812 37.351562 113.136719 36.546875 C 113.515625 36.140625 113.898438 35.746094 114.292969 35.359375 C 114.695312 34.984375 115.09375 34.59375 115.554688 34.292969 C 115.074219 34.566406 114.652344 34.933594 114.226562 35.289062 C 113.808594 35.648438 113.398438 36.023438 112.996094 36.40625 C 112.191406 37.167969 111.40625 37.949219 110.628906 38.738281 C 109.078125 40.324219 107.558594 41.9375 106.054688 43.5625 C 103.394531 46.4375 100.78125 49.351562 98.1875 52.289062 C 97.976562 52.066406 97.765625 51.847656 97.550781 51.632812 C 98.109375 49.765625 98.925781 47.859375 99.988281 45.953125 C 103.46875 43.203125 106.21875 39.675781 108.15625 35.453125 C 108.175781 35.433594 108.203125 35.421875 108.222656 35.402344 C 115.390625 28.242188 123.820312 23.941406 127.167969 22.402344 C 125.878906 29.953125 117.789062 41.679688 116.601562 43.367188 Z M 126.839844 42.84375 C 132.390625 42.328125 136.578125 43.355469 138.179688 43.84375 C 137.890625 44.664062 137.101562 45.40625 136.59375 45.789062 C 125.617188 45.195312 117.289062 48.28125 111.9375 51.265625 C 107.339844 53.832031 104.25 56.640625 102.648438 58.296875 C 102.363281 57.796875 102.066406 57.304688 101.757812 56.820312 C 101.613281 56.59375 101.457031 56.378906 101.304688 56.15625 C 110.914062 46.246094 120.449219 43.4375 126.839844 42.84375 Z M 94.8125 49.195312 C 95.492188 48.863281 96.152344 48.507812 96.792969 48.132812 C 96.5 48.820312 96.234375 49.507812 96.003906 50.191406 C 95.613281 49.847656 95.21875 49.519531 94.8125 49.195312 Z M 44.949219 85.914062 C 43.777344 85.859375 42.625 85.878906 41.496094 85.960938 C 42.675781 85.253906 43.625 84.621094 44.320312 84.136719 C 44.507812 84.738281 44.714844 85.332031 44.949219 85.914062 Z M 37.691406 64 C 39.710938 64.984375 41.714844 66.023438 43.664062 67.113281 C 43.632812 67.265625 43.597656 67.414062 43.566406 67.566406 C 43.507812 67.84375 43.457031 68.121094 43.40625 68.398438 C 41.261719 66.445312 39.097656 64.980469 36.953125 63.914062 C 37.199219 63.945312 37.445312 63.976562 37.691406 64 Z M 45.953125 59.734375 Z M 46.117188 59.847656 C 46.085938 59.832031 46.058594 59.8125 46.023438 59.789062 C 46.054688 59.808594 46.082031 59.828125 46.117188 59.847656 Z M 44.042969 65.578125 C 43.027344 65.078125 42.007812 64.601562 40.984375 64.136719 C 42.25 64.113281 43.449219 64.011719 44.554688 63.863281 C 44.367188 64.433594 44.199219 65.003906 44.042969 65.578125 Z M 21.589844 51.214844 C 21.550781 51.105469 21.492188 51.007812 21.417969 50.917969 C 20.804688 49.835938 20.230469 48.660156 19.699219 47.375 C 20.941406 46.210938 24.941406 42.957031 30.835938 42.945312 C 30.847656 42.945312 30.859375 42.945312 30.871094 42.945312 C 37.152344 42.945312 43.660156 46.503906 50.226562 53.53125 C 49.691406 54.167969 49.183594 54.824219 48.707031 55.503906 C 48.109375 55.03125 47.511719 54.601562 46.894531 54.175781 C 46.140625 53.660156 45.371094 53.171875 44.582031 52.714844 C 43.007812 51.796875 41.363281 51 39.664062 50.355469 C 38.808594 50.042969 37.941406 49.765625 37.0625 49.535156 C 36.183594 49.3125 35.289062 49.148438 34.390625 49.035156 C 33.488281 48.929688 32.582031 48.898438 31.679688 48.929688 C 30.78125 48.976562 29.886719 49.105469 29.011719 49.300781 C 29.898438 49.171875 30.792969 49.109375 31.683594 49.128906 C 32.574219 49.164062 33.457031 49.261719 34.328125 49.429688 C 35.199219 49.601562 36.054688 49.832031 36.894531 50.109375 C 37.730469 50.394531 38.554688 50.726562 39.355469 51.09375 C 40.957031 51.839844 42.492188 52.726562 43.945312 53.726562 C 44.671875 54.222656 45.378906 54.746094 46.066406 55.296875 C 46.671875 55.78125 47.28125 56.296875 47.832031 56.8125 C 47.496094 57.347656 47.175781 57.894531 46.875 58.449219 C 46.769531 58.386719 46.6875 58.371094 46.714844 58.378906 L 46.671875 58.367188 L 46.59375 58.351562 L 46.535156 58.34375 L 46.453125 58.335938 L 46.316406 58.328125 L 46.054688 58.3125 L 45.539062 58.285156 L 44.515625 58.214844 C 43.832031 58.15625 43.152344 58.089844 42.472656 58 C 41.113281 57.828125 39.761719 57.589844 38.433594 57.261719 C 37.101562 56.929688 35.792969 56.511719 34.542969 55.945312 C 33.292969 55.375 32.097656 54.65625 31.097656 53.691406 C 32 54.75 33.144531 55.597656 34.359375 56.296875 C 35.578125 57 36.878906 57.554688 38.203125 58.023438 C 39.53125 58.492188 40.890625 58.867188 42.265625 59.179688 C 42.949219 59.335938 43.640625 59.472656 44.335938 59.597656 L 45.378906 59.769531 L 45.898438 59.851562 L 46.140625 59.886719 C 45.835938 60.523438 45.554688 61.167969 45.292969 61.820312 C 42.4375 62.296875 38.710938 62.5 34.867188 61.554688 C 33.484375 61.019531 32.089844 60.507812 30.679688 60.035156 C 27.363281 58.394531 24.164062 55.644531 21.589844 51.214844 Z M 23.074219 99.5625 C 28.675781 91.042969 36.3125 87.117188 45.777344 87.882812 C 45.8125 87.957031 45.847656 88.03125 45.882812 88.105469 C 45.800781 88.164062 45.71875 88.222656 45.640625 88.28125 L 44.480469 89.109375 L 42.148438 90.769531 C 40.59375 91.882812 39.042969 93.003906 37.519531 94.160156 C 35.996094 95.316406 34.488281 96.496094 33.03125 97.742188 C 32.3125 98.371094 31.597656 99.007812 30.914062 99.679688 C 30.5625 100 30.253906 100.371094 29.921875 100.714844 C 29.75 100.882812 29.605469 101.074219 29.457031 101.261719 L 29.011719 101.820312 L 29.496094 101.292969 C 29.65625 101.117188 29.8125 100.941406 29.992188 100.785156 C 30.347656 100.464844 30.675781 100.121094 31.050781 99.824219 C 31.769531 99.207031 32.523438 98.625 33.28125 98.050781 C 34.808594 96.917969 36.386719 95.855469 37.976562 94.8125 C 39.570312 93.769531 41.1875 92.765625 42.808594 91.765625 L 45.25 90.273438 L 46.472656 89.523438 C 46.5 89.503906 46.523438 89.488281 46.550781 89.472656 L 46.625 89.597656 L 47.011719 90.28125 L 47.347656 90.878906 C 44.851562 96.175781 37.4375 107.078125 17.640625 111.796875 C 18.292969 109.390625 19.90625 104.375 23.074219 99.5625 Z M 61.910156 103.832031 C 61.917969 103.832031 61.925781 103.835938 61.933594 103.839844 C 61.3125 104.355469 60.734375 104.894531 60.195312 105.464844 C 60.488281 104.789062 60.785156 104.117188 61.085938 103.449219 C 61.359375 103.578125 61.632812 103.707031 61.910156 103.832031 Z M 59.699219 102.75 C 59.132812 104.210938 58.582031 105.675781 58.050781 107.144531 C 58.652344 105.316406 59.019531 103.722656 59.242188 102.5 C 59.394531 102.585938 59.546875 102.667969 59.699219 102.75 Z M 51.6875 96.605469 C 51.859375 96.792969 52.023438 96.992188 52.210938 97.164062 L 52.78125 97.703125 C 53.167969 98.0625 53.542969 98.429688 53.933594 98.777344 L 54.40625 99.15625 C 52.121094 99.769531 50.0625 100.546875 48.191406 101.449219 C 49.765625 99.488281 50.933594 97.777344 51.6875 96.605469 Z M 70.671875 106.257812 C 70.792969 106.671875 70.914062 107.089844 71.03125 107.511719 C 70.867188 107.058594 70.6875 106.632812 70.5 106.234375 C 70.558594 106.242188 70.613281 106.25 70.671875 106.257812 Z M 76.839844 106.445312 C 77.050781 107.242188 77.261719 108.039062 77.472656 108.835938 C 76.996094 107.96875 76.53125 107.179688 76.101562 106.488281 C 76.347656 106.476562 76.59375 106.464844 76.839844 106.445312 Z M 79.082031 106.214844 C 79.152344 108.25 79.34375 110.214844 79.636719 112.105469 C 79.230469 110.171875 78.816406 108.238281 78.394531 106.304688 C 78.625 106.277344 78.855469 106.246094 79.082031 106.214844 Z M 101.976562 86.082031 C 101.238281 87.878906 100.316406 89.609375 99.210938 91.214844 C 97.019531 94.4375 94.101562 97.171875 90.757812 99.140625 C 87.429688 101.140625 83.726562 102.414062 79.960938 103.070312 C 78.070312 103.386719 76.160156 103.5625 74.242188 103.527344 C 72.328125 103.496094 70.417969 103.277344 68.542969 102.875 C 64.796875 102.074219 61.179688 100.601562 58.023438 98.40625 L 57.421875 98.011719 L 56.851562 97.570312 L 55.707031 96.691406 C 55.34375 96.378906 54.992188 96.050781 54.632812 95.730469 L 54.09375 95.246094 C 53.914062 95.089844 53.757812 94.902344 53.589844 94.734375 L 52.59375 93.6875 C 52.261719 93.335938 51.976562 92.949219 51.664062 92.582031 C 51.023438 91.855469 50.503906 91.042969 49.945312 90.253906 C 49.878906 90.15625 49.804688 90.058594 49.742188 89.957031 L 49.558594 89.644531 L 49.191406 89.023438 L 48.820312 88.398438 L 48.636719 88.085938 C 48.578125 87.980469 48.527344 87.871094 48.472656 87.761719 C 48.054688 86.894531 47.589844 86.042969 47.261719 85.132812 C 46.488281 83.355469 46.011719 81.472656 45.589844 79.585938 C 44.886719 75.78125 44.90625 71.832031 45.722656 68.03125 C 46.566406 64.234375 48.25 60.667969 50.484375 57.53125 C 51.605469 55.96875 52.855469 54.492188 54.238281 53.15625 C 55.625 51.820312 57.136719 50.609375 58.746094 49.554688 C 61.972656 47.449219 65.617188 45.964844 69.414062 45.277344 C 73.210938 44.578125 77.140625 44.679688 80.90625 45.5 C 84.675781 46.335938 88.261719 47.917969 91.402344 50.128906 C 94.558594 52.328125 97.246094 55.167969 99.328125 58.386719 C 100.371094 59.996094 101.253906 61.710938 101.960938 63.492188 C 102.667969 65.277344 103.199219 67.128906 103.566406 69.011719 C 104.285156 72.777344 104.332031 76.691406 103.617188 80.503906 C 103.253906 82.40625 102.703125 84.277344 101.976562 86.082031 Z M 128.019531 59.785156 C 125.140625 60.125 122.167969 60.789062 119.121094 61.789062 C 113.242188 63.71875 108.582031 66.359375 106.230469 67.832031 C 106.195312 67.652344 106.15625 67.46875 106.117188 67.289062 C 109.128906 65.609375 112.121094 63.902344 115.085938 62.148438 C 116.621094 61.246094 118.140625 60.324219 119.652344 59.386719 C 121.160156 58.441406 122.660156 57.480469 124.085938 56.417969 C 122.585938 57.371094 121.023438 58.214844 119.453125 59.039062 C 117.882812 59.863281 116.300781 60.664062 114.707031 61.449219 C 111.734375 62.914062 108.742188 64.339844 105.738281 65.734375 C 105.507812 64.890625 105.246094 64.054688 104.945312 63.230469 C 106.222656 62.1875 107.566406 61.179688 108.925781 60.21875 C 110.539062 59.089844 112.1875 57.996094 113.898438 57.015625 C 114.320312 56.757812 114.757812 56.535156 115.191406 56.292969 C 115.625 56.058594 116.054688 55.816406 116.5 55.605469 C 116.945312 55.390625 117.386719 55.167969 117.832031 54.957031 L 119.191406 54.367188 C 121.019531 53.628906 122.914062 53.019531 124.882812 52.722656 C 122.898438 52.886719 120.949219 53.371094 119.050781 53.996094 L 117.640625 54.496094 C 117.171875 54.679688 116.714844 54.875 116.25 55.0625 C 115.785156 55.246094 115.332031 55.460938 114.878906 55.671875 C 114.425781 55.882812 113.964844 56.082031 113.523438 56.3125 C 111.722656 57.191406 109.984375 58.183594 108.269531 59.21875 C 106.945312 60.03125 105.644531 60.867188 104.367188 61.765625 C 104.125 61.199219 103.871094 60.640625 103.597656 60.085938 C 106.695312 56.757812 119.585938 44.773438 141.710938 48.25 C 140.828125 50.003906 137.820312 54.21875 128.019531 59.785156 Z M 148.597656 64.097656 C 143.796875 61.019531 138.246094 59.484375 132.183594 59.523438 C 142.902344 52.757812 143.878906 48.179688 143.957031 47.636719 C 144.03125 47.125 143.6875 46.648438 143.179688 46.558594 C 141.792969 46.3125 140.441406 46.125 139.121094 45.988281 C 139.714844 45.25 140.222656 44.289062 140.203125 43.175781 C 140.195312 42.789062 139.957031 42.449219 139.601562 42.304688 C 139.390625 42.222656 134.332031 40.253906 126.769531 40.929688 C 124.679688 41.117188 122.265625 41.53125 119.632812 42.320312 C 122.699219 37.703125 129.023438 27.433594 129.25 20.902344 C 129.257812 20.578125 129.105469 20.273438 128.84375 20.085938 C 128.582031 19.902344 128.242188 19.859375 127.941406 19.980469 C 127.722656 20.066406 125.171875 21.085938 121.5625 23.105469 C 121.902344 21.4375 122.015625 19.21875 121.066406 17.066406 C 120.917969 16.722656 120.578125 16.5 120.203125 16.496094 C 120.015625 16.496094 116.148438 16.503906 111.472656 20.195312 C 111.542969 17.269531 111.296875 15.34375 111.277344 15.199219 C 111.238281 14.914062 111.074219 14.660156 110.832031 14.511719 C 110.585938 14.359375 110.289062 14.328125 110.015625 14.421875 C 106.933594 15.492188 104.230469 16.789062 101.847656 18.242188 C 102.046875 16.234375 102 12.972656 100.710938 8.625 C 100.628906 8.339844 100.421875 8.113281 100.144531 8.003906 C 99.871094 7.898438 99.5625 7.921875 99.308594 8.070312 C 99.054688 8.222656 92.980469 11.832031 87.285156 18.03125 C 87.269531 18.042969 87.257812 18.058594 87.246094 18.070312 C 84.199219 7.480469 78.410156 3.496094 78.152344 3.324219 C 77.726562 3.035156 77.144531 3.140625 76.84375 3.5625 C 73.558594 8.167969 71.425781 12.746094 70.066406 17.019531 C 67.328125 6.382812 61.019531 2.550781 60.722656 2.378906 C 60.328125 2.144531 59.824219 2.226562 59.519531 2.570312 C 55.511719 7.128906 55.367188 16.5 55.808594 22.835938 C 54.140625 19.8125 52.085938 16.96875 49.535156 14.582031 C 48.089844 13.226562 46.496094 12.019531 44.773438 11.019531 C 43.910156 10.519531 43.011719 10.078125 42.082031 9.695312 C 41.617188 9.5 41.140625 9.332031 40.65625 9.179688 C 40.414062 9.101562 40.171875 9.03125 39.917969 8.96875 C 39.792969 8.9375 39.667969 8.902344 39.539062 8.875 C 39.40625 8.847656 39.289062 8.820312 39.121094 8.792969 C 38.625 8.714844 38.152344 9.035156 38.046875 9.53125 L 38.042969 9.546875 C 37.203125 13.589844 36.613281 17.699219 36.429688 21.851562 C 36.363281 22.890625 36.382812 23.933594 36.375 24.972656 C 36.375 25.492188 36.410156 26.015625 36.429688 26.535156 L 36.429688 26.550781 C 33.574219 24.535156 27.660156 21.289062 20.269531 22.292969 C 19.8125 22.355469 19.464844 22.734375 19.445312 23.195312 C 19.429688 23.507812 19.195312 29.835938 23.984375 38.089844 C 15.609375 36.496094 9.417969 40.988281 9.132812 41.195312 C 8.867188 41.394531 8.722656 41.71875 8.75 42.050781 C 9.007812 44.851562 12.433594 48.097656 14.859375 50.070312 C 8.554688 50.457031 3.0625 53.316406 2.765625 53.476562 C 2.339844 53.703125 2.148438 54.207031 2.316406 54.65625 C 4.308594 59.988281 10.722656 63.421875 13.632812 64.746094 C 8.195312 67.457031 4.675781 70.863281 4.5 71.035156 C 4.261719 71.269531 4.164062 71.605469 4.238281 71.929688 C 4.308594 72.253906 4.546875 72.515625 4.859375 72.625 C 8.621094 73.90625 12.050781 74.9375 15.171875 75.753906 C 1.789062 81.839844 0.734375 87.695312 0.691406 87.953125 C 0.632812 88.347656 0.820312 88.734375 1.164062 88.929688 C 2.09375 89.460938 3.039062 89.941406 4 90.371094 C 3.703125 90.777344 3.363281 91.28125 2.949219 91.910156 C 2.132812 93.15625 1.378906 94.402344 1.347656 94.457031 C 1.125 94.824219 1.175781 95.292969 1.472656 95.605469 C 5.402344 99.761719 10.671875 100.792969 14.933594 100.792969 C 17.128906 100.792969 19.050781 100.519531 20.394531 100.257812 C 19.617188 101.585938 18.949219 102.898438 18.378906 104.148438 C 12.871094 107.292969 10.960938 116.503906 10.882812 116.902344 C 10.832031 117.15625 10.886719 117.417969 11.03125 117.632812 C 11.179688 117.84375 11.40625 117.988281 11.660156 118.03125 C 13.492188 118.34375 15.324219 118.496094 17.140625 118.496094 C 23.378906 118.496094 29.496094 116.683594 35.261719 113.132812 C 34.390625 114.554688 33.675781 115.957031 33.09375 117.292969 C 29.816406 124.8125 29.878906 131.570312 29.882812 131.855469 C 29.886719 132.160156 30.039062 132.445312 30.289062 132.621094 C 30.453125 132.734375 30.644531 132.796875 30.839844 132.796875 C 30.941406 132.796875 31.046875 132.777344 31.148438 132.742188 C 36.964844 130.75 41.59375 128.128906 45.277344 125.230469 C 44.019531 135.367188 50.210938 143.601562 50.5 143.980469 C 50.683594 144.214844 50.964844 144.351562 51.257812 144.351562 C 51.273438 144.351562 51.285156 144.351562 51.296875 144.351562 C 51.605469 144.339844 51.890625 144.179688 52.0625 143.917969 C 54.335938 140.425781 56.695312 135.761719 57.945312 133.195312 C 58.355469 134.15625 58.648438 134.730469 58.683594 134.800781 C 58.820312 135.0625 59.070312 135.25 59.363281 135.300781 C 59.417969 135.3125 59.476562 135.316406 59.535156 135.316406 C 59.765625 135.316406 59.996094 135.230469 60.171875 135.070312 C 62.378906 133.082031 64.207031 131.148438 65.71875 129.289062 C 67.320312 136.441406 73.328125 144.480469 73.609375 144.855469 C 73.777344 145.074219 74.027344 145.210938 74.300781 145.230469 C 74.328125 145.234375 74.351562 145.234375 74.375 145.234375 C 74.625 145.234375 74.863281 145.136719 75.042969 144.960938 C 76.5 143.539062 77.707031 142.070312 78.707031 140.574219 C 80.992188 145.097656 84.644531 147.351562 84.816406 147.453125 C 84.96875 147.546875 85.140625 147.59375 85.3125 147.59375 C 85.558594 147.59375 85.804688 147.496094 85.988281 147.3125 C 88.910156 144.390625 89.789062 139.472656 90.046875 136.339844 C 93.8125 141.394531 97.097656 144.160156 97.257812 144.292969 C 97.433594 144.4375 97.648438 144.511719 97.867188 144.511719 C 98.058594 144.511719 98.25 144.457031 98.414062 144.339844 C 103.621094 140.695312 103.316406 132.121094 102.851562 128.136719 C 108.214844 131.175781 112.726562 131.304688 113.433594 131.304688 C 113.480469 131.304688 113.507812 131.300781 113.519531 131.300781 C 113.992188 131.292969 114.382812 130.941406 114.449219 130.472656 C 114.910156 127.042969 114.894531 123.800781 114.402344 120.753906 C 117.011719 122.230469 122.027344 124.492188 128.230469 124.492188 C 128.933594 124.492188 129.652344 124.464844 130.382812 124.402344 C 130.679688 124.375 130.949219 124.214844 131.109375 123.960938 C 131.269531 123.710938 131.300781 123.398438 131.199219 123.117188 C 131.042969 122.699219 127.894531 114.320312 121.179688 106.609375 C 129.128906 110.058594 136.871094 110.230469 138.316406 110.230469 C 138.425781 110.230469 138.5 110.230469 138.535156 110.230469 C 138.792969 110.226562 139.042969 110.113281 139.21875 109.925781 C 139.394531 109.734375 139.488281 109.476562 139.472656 109.21875 C 139.101562 103.144531 135.335938 98.121094 132.964844 95.53125 C 134.335938 95.601562 135.628906 95.632812 136.8125 95.632812 C 141.265625 95.632812 144.222656 95.230469 144.558594 95.183594 C 144.882812 95.136719 145.164062 94.925781 145.296875 94.625 C 145.429688 94.324219 145.398438 93.976562 145.214844 93.703125 C 140.910156 87.339844 135.683594 83.4375 132.949219 81.675781 C 138.476562 79.71875 141.703125 77.289062 141.851562 77.175781 C 142.085938 77 142.222656 76.726562 142.230469 76.433594 C 142.234375 76.140625 142.105469 75.863281 141.878906 75.675781 C 141.019531 74.972656 140.160156 74.316406 139.292969 73.699219 C 146.367188 72.210938 148.953125 65.304688 148.980469 65.226562 C 149.132812 64.808594 148.972656 64.339844 148.597656 64.097656 " fill-opacity="1" fill-rule="nonzero"/></g></svg>